<?xml version="1.0" encoding="utf-8"?>
<!-- Generator: Adobe Illustrator 23.0.1, SVG Export Plug-In . SVG Version: 6.00 Build 0)  -->
<svg version="1.1" xmlns="http://www.w3.org/2000/svg" xmlns:xlink="http://www.w3.org/1999/xlink" x="0px" y="0px"
	 viewBox="0 0 1366 768" style="enable-background:new 0 0 1366 768;" xml:space="preserve">
<style type="text/css">
	.st0{fill:#3A3A3A;}
	.st1{fill:url(#SVGID_1_);}
	.st2{fill:url(#SVGID_2_);}
	.st3{fill:url(#SVGID_3_);}
	.st4{fill:url(#SVGID_4_);}
	.st5{fill:url(#SVGID_5_);}
	.st6{fill:url(#SVGID_6_);}
	.st7{fill:url(#SVGID_7_);}
	.st8{fill:url(#SVGID_8_);}
	.st9{fill:url(#SVGID_9_);}
	.st10{fill:url(#SVGID_10_);}
	.st11{fill:url(#SVGID_11_);}
	.st12{fill:url(#SVGID_12_);}
	.st13{fill:url(#SVGID_13_);}
	.st14{fill:url(#SVGID_14_);}
	.st15{fill:url(#SVGID_15_);}
	.st16{fill:url(#SVGID_16_);}
	.st17{fill:url(#SVGID_17_);}
	.st18{fill:url(#SVGID_18_);}
	.st19{fill:url(#SVGID_19_);}
	.st20{fill:url(#SVGID_20_);}
	.st21{fill:url(#SVGID_21_);}
	.st22{fill:url(#SVGID_22_);}
	.st23{fill:url(#SVGID_23_);}
	.st24{fill:url(#SVGID_24_);}
	.st25{fill:url(#SVGID_25_);}
</style>
<g id="Layer_5">
	<rect class="st0" width="1366" height="768"/>
</g>
<g id="Layer_3">
	<linearGradient id="SVGID_1_" gradientUnits="userSpaceOnUse" x1="148.7523" y1="916.7017" x2="1217.2477" y2="-151.7937">
		<stop  offset="0" style="stop-color:#4F1E82"/>
		<stop  offset="1" style="stop-color:#145286"/>
	</linearGradient>
	<rect y="-3" class="st1" width="1366" height="771"/>
</g>
<g id="Layer_1">
	<g>
		
			<image style="overflow:visible;opacity:5.000000e-02;" width="254" height="811" xlink:href="2C03AE8D.png"  transform="matrix(1 0 0 1 511 -15)">
		</image>
		<g>
			<linearGradient id="SVGID_2_" gradientUnits="userSpaceOnUse" x1="638" y1="0" x2="638" y2="781">
				<stop  offset="9.681973e-08" style="stop-color:#8FBCDB"/>
				<stop  offset="1" style="stop-color:#000000;stop-opacity:0"/>
			</linearGradient>
			<polygon class="st2" points="750,9.8 750,781 526,781 526,0 530,0 530,9.8 			"/>
		</g>
	</g>
	<g>
		
			<image style="overflow:visible;opacity:5.000000e-02;" width="254" height="786" xlink:href="2C03AE8F.png"  transform="matrix(1 0 0 1 1103 -6)">
		</image>
		<g>
			<linearGradient id="SVGID_3_" gradientUnits="userSpaceOnUse" x1="1230" y1="9.7956" x2="1230" y2="764.9241">
				<stop  offset="9.681973e-08" style="stop-color:#0C5282"/>
				<stop  offset="1" style="stop-color:#000000"/>
			</linearGradient>
			<rect x="1118" y="9.8" class="st3" width="224" height="755.1"/>
		</g>
	</g>
	<g>
		
			<image style="overflow:visible;opacity:5.000000e-02;" width="254" height="740" xlink:href="2C03AE8A.png"  transform="matrix(1 0 0 1 596 40)">
		</image>
		<g>
			<linearGradient id="SVGID_4_" gradientUnits="userSpaceOnUse" x1="723" y1="55.1312" x2="723" y2="764.9207">
				<stop  offset="0" style="stop-color:#145286"/>
				<stop  offset="1" style="stop-color:#000000"/>
			</linearGradient>
			<rect x="611" y="55.1" class="st4" width="224" height="709.8"/>
		</g>
	</g>
	<g>
		
			<image style="overflow:visible;opacity:5.000000e-02;" width="254" height="786" xlink:href="2C03AE8B.png"  transform="matrix(1 0 0 1 18 -6)">
		</image>
		<g>
			<linearGradient id="SVGID_5_" gradientUnits="userSpaceOnUse" x1="145" y1="9.7956" x2="145" y2="764.9241">
				<stop  offset="0" style="stop-color:#145286"/>
				<stop  offset="1" style="stop-color:#000000"/>
			</linearGradient>
			<rect x="33" y="9.8" class="st5" width="224" height="755.1"/>
		</g>
	</g>
	<g>
		
			<image style="overflow:visible;opacity:5.000000e-02;" width="319" height="754" xlink:href="2C03AE95.png"  transform="matrix(1 0 0 1 252 26)">
		</image>
		<g>
			<linearGradient id="SVGID_6_" gradientUnits="userSpaceOnUse" x1="411.5" y1="41.3488" x2="411.5" y2="764.9207">
				<stop  offset="9.681973e-08" style="stop-color:#25597C"/>
				<stop  offset="1" style="stop-color:#000000"/>
			</linearGradient>
			<rect x="267" y="41.3" class="st6" width="289" height="723.6"/>
		</g>
	</g>
	<g>
		
			<image style="overflow:visible;opacity:5.000000e-02;" width="206" height="645" xlink:href="2C03AE97.png"  transform="matrix(1 0 0 1 153 138)">
		</image>
		<g>
			<linearGradient id="SVGID_7_" gradientUnits="userSpaceOnUse" x1="256" y1="153.9044" x2="256" y2="767.2177">
				<stop  offset="9.681973e-08" style="stop-color:#39BCE3"/>
				<stop  offset="1" style="stop-color:#000000"/>
			</linearGradient>
			<rect x="168" y="153.9" class="st7" width="176" height="613.3"/>
		</g>
	</g>
	<g>
		
			<image style="overflow:visible;opacity:5.000000e-02;" width="254" height="651" xlink:href="2C03AE9A.png"  transform="matrix(1 0 0 1 846 128)">
		</image>
		<g>
			<linearGradient id="SVGID_8_" gradientUnits="userSpaceOnUse" x1="973" y1="143.5901" x2="973" y2="763.8479">
				<stop  offset="9.681973e-08" style="stop-color:#8FBCDB"/>
				<stop  offset="1" style="stop-color:#000000;stop-opacity:0"/>
			</linearGradient>
			<rect x="861" y="143.6" class="st8" width="224" height="620.3"/>
		</g>
	</g>
	<g>
		
			<image style="overflow:visible;opacity:5.000000e-02;" width="206" height="589" xlink:href="2C03AE9B.png"  transform="matrix(1 0 0 1 988 192)">
		</image>
		<g>
			<linearGradient id="SVGID_9_" gradientUnits="userSpaceOnUse" x1="1091" y1="207.6183" x2="1091" y2="765.3438">
				<stop  offset="9.681973e-08" style="stop-color:#1570AD"/>
				<stop  offset="1" style="stop-color:#000000"/>
			</linearGradient>
			<rect x="1003" y="207.6" class="st9" width="176" height="557.7"/>
		</g>
	</g>
	<g>
		
			<image style="overflow:visible;opacity:5.000000e-02;" width="159" height="392" xlink:href="2C03AE9D.png"  transform="matrix(1 0 0 1 467 388)">
		</image>
		<g>
			<linearGradient id="SVGID_10_" gradientUnits="userSpaceOnUse" x1="546.5" y1="403.1347" x2="546.5" y2="764.9207">
				<stop  offset="9.681973e-08" style="stop-color:#1570AD"/>
				<stop  offset="1" style="stop-color:#000000"/>
			</linearGradient>
			<rect x="482" y="403.1" class="st10" width="129" height="361.8"/>
		</g>
	</g>
	<g>
		
			<image style="overflow:visible;opacity:5.000000e-02;" width="187" height="512" xlink:href="5C883A66.png"  transform="matrix(1 0 0 1 727 267)">
		</image>
		<g>
			<linearGradient id="SVGID_11_" gradientUnits="userSpaceOnUse" x1="820.5" y1="282.5394" x2="820.5" y2="763.7721">
				<stop  offset="9.681973e-08" style="stop-color:#56D0DE"/>
				<stop  offset="1" style="stop-color:#000000"/>
			</linearGradient>
			<rect x="742" y="282.5" class="st11" width="157" height="481.2"/>
		</g>
	</g>
	<g>
		
			<image style="overflow:visible;opacity:5.000000e-02;" width="187" height="384" xlink:href="5C883A61.png"  transform="matrix(1 0 0 1 792 395)">
		</image>
		<g>
			<linearGradient id="SVGID_12_" gradientUnits="userSpaceOnUse" x1="885.5" y1="410.0259" x2="885.5" y2="763.7721">
				<stop  offset="1.984804e-07" style="stop-color:#254459"/>
				<stop  offset="1" style="stop-color:#000000"/>
			</linearGradient>
			<rect x="807" y="410" class="st12" width="157" height="353.7"/>
		</g>
	</g>
</g>
<g id="Layer_4">
	<g>
		
			<image style="overflow:visible;opacity:0.75;" width="265" height="555" xlink:href="5C883A62.png"  transform="matrix(1 0 0 1 688 225)">
		</image>
		<g>
			<linearGradient id="SVGID_13_" gradientUnits="userSpaceOnUse" x1="630.551" y1="312.5484" x2="1009.5403" y2="691.5377">
				<stop  offset="9.681973e-08" style="stop-color:#51A9E5;stop-opacity:0.5"/>
				<stop  offset="1" style="stop-color:#730CC4;stop-opacity:0.4"/>
			</linearGradient>
			<rect x="703.1" y="240" class="st13" width="234" height="524"/>
		</g>
	</g>
	<g>
		
			<image style="overflow:visible;opacity:0.75;" width="264" height="555" xlink:href="5C883A60.png"  transform="matrix(1 0 0 1 -15 225)">
		</image>
		<g>
			<linearGradient id="SVGID_14_" gradientUnits="userSpaceOnUse" x1="-72.5044" y1="312.5484" x2="306.4849" y2="691.5377">
				<stop  offset="9.681973e-08" style="stop-color:#51A9E5;stop-opacity:0.5"/>
				<stop  offset="1" style="stop-color:#730CC4;stop-opacity:0.4"/>
			</linearGradient>
			<rect y="240" class="st14" width="234" height="524"/>
		</g>
	</g>
	<g>
		
			<image style="overflow:visible;opacity:0.75;" width="265" height="508" xlink:href="5C883A7E.png"  transform="matrix(1 0 0 1 514 272)">
		</image>
		<g>
			<linearGradient id="SVGID_15_" gradientUnits="userSpaceOnUse" x1="468.6461" y1="348.2755" x2="823.8173" y2="703.4467">
				<stop  offset="9.681973e-08" style="stop-color:#51A9E5;stop-opacity:0.5"/>
				<stop  offset="1" style="stop-color:#730CC4;stop-opacity:0.4"/>
			</linearGradient>
			<rect x="529.2" y="287.7" class="st15" width="234" height="476.4"/>
		</g>
	</g>
	<g>
		
			<image style="overflow:visible;opacity:0.75;" width="264" height="555" xlink:href="5C883A63.png"  transform="matrix(1 0 0 1 1117 225)">
		</image>
		<g>
			<linearGradient id="SVGID_16_" gradientUnits="userSpaceOnUse" x1="1059.5151" y1="312.5484" x2="1438.5044" y2="691.5377">
				<stop  offset="9.681973e-08" style="stop-color:#51A9E5;stop-opacity:0.5"/>
				<stop  offset="1" style="stop-color:#730CC4;stop-opacity:0.4"/>
			</linearGradient>
			<rect x="1132" y="240" class="st16" width="234" height="524"/>
		</g>
	</g>
	<g>
		
			<image style="overflow:visible;opacity:0.75;" width="333" height="549" xlink:href="5C883A67.png"  transform="matrix(1 0 0 1 815 -6)">
		</image>
		<g>
			<linearGradient id="SVGID_17_" gradientUnits="userSpaceOnUse" x1="776.9929" y1="63.6527" x2="1186.6571" y2="473.3169">
				<stop  offset="9.681973e-08" style="stop-color:#51A9E5;stop-opacity:0.5"/>
				<stop  offset="1" style="stop-color:#730CC4;stop-opacity:0.4"/>
			</linearGradient>
			<rect x="830.8" y="9.8" class="st17" width="302" height="517.4"/>
		</g>
	</g>
	<g>
		
			<image style="overflow:visible;opacity:0.75;" width="215" height="443" xlink:href="5C883A65.png"  transform="matrix(1 0 0 1 1026 339)">
		</image>
		<g>
			<linearGradient id="SVGID_18_" gradientUnits="userSpaceOnUse" x1="984.8565" y1="411.487" x2="1282.5253" y2="709.1557">
				<stop  offset="9.681973e-08" style="stop-color:#51A9E5;stop-opacity:0.5"/>
				<stop  offset="1" style="stop-color:#730CC4;stop-opacity:0.4"/>
			</linearGradient>
			<rect x="1041.8" y="354.6" class="st18" width="183.8" height="411.5"/>
		</g>
	</g>
	<g>
		
			<image style="overflow:visible;opacity:0.75;" width="265" height="392" xlink:href="5C883A6C.png"  transform="matrix(1 0 0 1 280 -15)">
		</image>
		<g>
			<linearGradient id="SVGID_19_" gradientUnits="userSpaceOnUse" x1="269.1118" y1="36.6638" x2="561.726" y2="329.2781">
				<stop  offset="9.681973e-08" style="stop-color:#51A9E5;stop-opacity:0.5"/>
				<stop  offset="1" style="stop-color:#730CC4;stop-opacity:0.4"/>
			</linearGradient>
			<polygon class="st19" points="530,0 530,361 296,361 296,9.8 526,9.8 526,0 			"/>
		</g>
	</g>
	<g>
		
			<image style="overflow:visible;opacity:0.75;" width="215" height="406" xlink:href="5C883A6D.png"  transform="matrix(1 0 0 1 231 357)">
		</image>
		<g>
			<linearGradient id="SVGID_20_" gradientUnits="userSpaceOnUse" x1="198.6798" y1="420.611" x2="478.1049" y2="700.0361">
				<stop  offset="9.681973e-08" style="stop-color:#51A9E5;stop-opacity:0.5"/>
				<stop  offset="1" style="stop-color:#730CC4;stop-opacity:0.4"/>
			</linearGradient>
			<rect x="246.5" y="372.8" class="st20" width="183.8" height="375"/>
		</g>
	</g>
	<g>
		
			<image style="overflow:visible;opacity:0.75;" width="324" height="208" xlink:href="5C883A85.png"  transform="matrix(1 0 0 1 18 445)">
		</image>
		<g>
			<linearGradient id="SVGID_21_" gradientUnits="userSpaceOnUse" x1="62.6353" y1="431.3972" x2="297.8362" y2="666.598">
				<stop  offset="9.681973e-08" style="stop-color:#51A9E5;stop-opacity:0.5"/>
				<stop  offset="1" style="stop-color:#730CC4;stop-opacity:0.4"/>
			</linearGradient>
			<rect x="33.5" y="460.6" class="st21" width="293.5" height="176.9"/>
		</g>
	</g>
	<g>
		
			<image style="overflow:visible;opacity:0.75;" width="166" height="275" xlink:href="5C883A87.png"  transform="matrix(1 0 0 1 748 506)">
		</image>
		<g>
			<linearGradient id="SVGID_22_" gradientUnits="userSpaceOnUse" x1="736.114" y1="548.9148" x2="925.147" y2="737.9478">
				<stop  offset="9.681973e-08" style="stop-color:#51A9E5;stop-opacity:0.5"/>
				<stop  offset="1" style="stop-color:#730CC4;stop-opacity:0.4"/>
			</linearGradient>
			<rect x="763.2" y="521.8" class="st22" width="134.8" height="243.2"/>
		</g>
	</g>
	<g>
		
			<image style="overflow:visible;opacity:0.75;" width="166" height="199" xlink:href="5C883A84.png"  transform="matrix(1 0 0 1 1166 -6)">
		</image>
		<g>
			<linearGradient id="SVGID_23_" gradientUnits="userSpaceOnUse" x1="1173.121" y1="17.8946" x2="1324.139" y2="168.9126">
				<stop  offset="9.681973e-08" style="stop-color:#51A9E5;stop-opacity:0.5"/>
				<stop  offset="1" style="stop-color:#730CC4;stop-opacity:0.4"/>
			</linearGradient>
			<rect x="1181.2" y="9.8" class="st23" width="134.8" height="167.2"/>
		</g>
	</g>
	<g>
		
			<image style="overflow:visible;opacity:0.75;" width="195" height="355" xlink:href="5C883A83.png"  transform="matrix(1 0 0 1 447 425)">
		</image>
		<g>
			<linearGradient id="SVGID_24_" gradientUnits="userSpaceOnUse" x1="422.507" y1="480.607" x2="666.0591" y2="724.1592">
				<stop  offset="9.681973e-08" style="stop-color:#51A9E5;stop-opacity:0.5"/>
				<stop  offset="1" style="stop-color:#730CC4;stop-opacity:0.4"/>
			</linearGradient>
			<rect x="462.4" y="440.7" class="st24" width="163.8" height="323.3"/>
		</g>
	</g>
	<g>
		
			<image style="overflow:visible;opacity:0.75;" width="195" height="268" xlink:href="5C883A8D.png"  transform="matrix(1 0 0 1 415 74)">
		</image>
		<g>
			<linearGradient id="SVGID_25_" gradientUnits="userSpaceOnUse" x1="412.0789" y1="107.6313" x2="612.5557" y2="308.1082">
				<stop  offset="9.681973e-08" style="stop-color:#51A9E5;stop-opacity:0.5"/>
				<stop  offset="1" style="stop-color:#730CC4;stop-opacity:0.4"/>
			</linearGradient>
			<rect x="430.4" y="89.3" class="st25" width="163.8" height="237.2"/>
		</g>
	</g>
</g>
<g id="Layer_2">
</g>
</svg>
